<mxfile host="app.diagrams.net" agent="Mozilla/5.0 (Windows NT 10.0; Win64; x64) AppleWebKit/537.36 (KHTML, like Gecko) Chrome/140.0.0.0 Safari/537.36" version="28.2.5">
  <diagram name="Page-1" id="NWWiBwSiMHT2Ur717pmt">
    <mxGraphModel dx="2066" dy="1177" grid="0" gridSize="10" guides="1" tooltips="1" connect="1" arrows="1" fold="1" page="0" pageScale="1" pageWidth="850" pageHeight="1100" math="0" shadow="0">
      <root>
        <mxCell id="0" />
        <mxCell id="1" parent="0" />
        <mxCell id="EqE0YKUDqJqxegZ7C9gL-1" value="PRODUCTION DATA INFORMATION SYSTEM" style="rounded=1;whiteSpace=wrap;html=1;fillColor=#dae8fc;strokeColor=#6c8ebf;" parent="1" vertex="1">
          <mxGeometry x="355" y="570" width="120" height="160" as="geometry" />
        </mxCell>
        <mxCell id="EqE0YKUDqJqxegZ7C9gL-2" value="" style="endArrow=none;html=1;rounded=0;exitX=0;exitY=0.25;exitDx=0;exitDy=0;entryX=1;entryY=0.25;entryDx=0;entryDy=0;" parent="1" source="EqE0YKUDqJqxegZ7C9gL-1" target="EqE0YKUDqJqxegZ7C9gL-1" edge="1">
          <mxGeometry width="50" height="50" relative="1" as="geometry">
            <mxPoint x="390" y="640" as="sourcePoint" />
            <mxPoint x="440" y="590" as="targetPoint" />
          </mxGeometry>
        </mxCell>
        <mxCell id="EqE0YKUDqJqxegZ7C9gL-3" value="0" style="text;html=1;align=center;verticalAlign=middle;whiteSpace=wrap;rounded=0;" parent="1" vertex="1">
          <mxGeometry x="385" y="580" width="60" height="30" as="geometry" />
        </mxCell>
        <mxCell id="EqE0YKUDqJqxegZ7C9gL-4" value="FABRICATION &amp;amp; MACHINE SHOP DEPARTMENT USER INTERFACES" style="shape=cube;whiteSpace=wrap;html=1;boundedLbl=1;backgroundOutline=1;darkOpacity=0.05;darkOpacity2=0.1;strokeWidth=1;fillColor=#dae8fc;strokeColor=#6c8ebf;" parent="1" vertex="1">
          <mxGeometry x="22.5" y="330" width="165" height="110" as="geometry" />
        </mxCell>
        <mxCell id="EqE0YKUDqJqxegZ7C9gL-21" value="WO C/U/D REQUEST" style="text;html=1;align=center;verticalAlign=middle;whiteSpace=wrap;rounded=0;" parent="1" vertex="1">
          <mxGeometry x="106.88" y="635" width="253.75" height="30" as="geometry" />
        </mxCell>
        <mxCell id="EqE0YKUDqJqxegZ7C9gL-22" value="SEARCH CRITERIA" style="text;html=1;align=center;verticalAlign=middle;whiteSpace=wrap;rounded=0;" parent="1" vertex="1">
          <mxGeometry x="545" y="580" width="120" height="20" as="geometry" />
        </mxCell>
        <mxCell id="EqE0YKUDqJqxegZ7C9gL-25" value="SEARCH RESULTS" style="text;html=1;align=center;verticalAlign=middle;whiteSpace=wrap;rounded=0;" parent="1" vertex="1">
          <mxGeometry x="510" y="600" width="190" height="20" as="geometry" />
        </mxCell>
        <mxCell id="EqE0YKUDqJqxegZ7C9gL-29" value="Team 2 Production Data Information System Context Diagram" style="text;html=1;align=center;verticalAlign=middle;whiteSpace=wrap;rounded=0;" parent="1" vertex="1">
          <mxGeometry x="2.5" y="130" width="280" height="30" as="geometry" />
        </mxCell>
        <mxCell id="47_pGREQ6rvNZp8R7Rz3-7" value="NEW WORK ORDERS" style="text;html=1;align=center;verticalAlign=middle;whiteSpace=wrap;rounded=0;" parent="1" vertex="1">
          <mxGeometry x="193.75" y="200" width="80" height="30" as="geometry" />
        </mxCell>
        <mxCell id="47_pGREQ6rvNZp8R7Rz3-9" value="" style="endArrow=classic;html=1;rounded=0;strokeWidth=2;exitX=-0.005;exitY=0.362;exitDx=0;exitDy=0;exitPerimeter=0;" parent="1" source="kIoXdZcQtLT9reUE1cwR-3" edge="1">
          <mxGeometry width="50" height="50" relative="1" as="geometry">
            <mxPoint x="350" y="230" as="sourcePoint" />
            <mxPoint x="100" y="330" as="targetPoint" />
            <Array as="points">
              <mxPoint x="290" y="230" />
              <mxPoint x="100" y="230" />
            </Array>
          </mxGeometry>
        </mxCell>
        <mxCell id="47_pGREQ6rvNZp8R7Rz3-12" value="" style="shape=partialRectangle;whiteSpace=wrap;html=1;bottom=0;right=0;fillColor=#dae8fc;strokeColor=#000000;" parent="1" vertex="1">
          <mxGeometry x="117.5" y="839.0000000000001" width="160" height="60" as="geometry" />
        </mxCell>
        <mxCell id="47_pGREQ6rvNZp8R7Rz3-13" value="" style="endArrow=none;html=1;rounded=0;exitX=0;exitY=1;exitDx=0;exitDy=0;entryX=1;entryY=1;entryDx=0;entryDy=0;" parent="1" source="47_pGREQ6rvNZp8R7Rz3-12" target="47_pGREQ6rvNZp8R7Rz3-12" edge="1">
          <mxGeometry width="50" height="50" relative="1" as="geometry">
            <mxPoint x="197.5" y="999.0000000000001" as="sourcePoint" />
            <mxPoint x="247.5" y="949.0000000000001" as="targetPoint" />
          </mxGeometry>
        </mxCell>
        <mxCell id="47_pGREQ6rvNZp8R7Rz3-14" value="" style="endArrow=none;html=1;rounded=0;entryX=0.25;entryY=0;entryDx=0;entryDy=0;" parent="1" target="47_pGREQ6rvNZp8R7Rz3-12" edge="1">
          <mxGeometry width="50" height="50" relative="1" as="geometry">
            <mxPoint x="157.5" y="899.0000000000001" as="sourcePoint" />
            <mxPoint x="247.5" y="949.0000000000001" as="targetPoint" />
          </mxGeometry>
        </mxCell>
        <mxCell id="47_pGREQ6rvNZp8R7Rz3-16" value="D1" style="text;html=1;align=center;verticalAlign=middle;whiteSpace=wrap;rounded=0;" parent="1" vertex="1">
          <mxGeometry x="127.5" y="854.0000000000001" width="20" height="30" as="geometry" />
        </mxCell>
        <mxCell id="47_pGREQ6rvNZp8R7Rz3-18" value="LEGACY DATA SOURCE" style="text;html=1;align=center;verticalAlign=middle;whiteSpace=wrap;rounded=0;" parent="1" vertex="1">
          <mxGeometry x="162.5" y="854.0000000000001" width="110" height="30" as="geometry" />
        </mxCell>
        <mxCell id="47_pGREQ6rvNZp8R7Rz3-22" value="DEPARTMENT MANAGER USER AUTHENTICATION" style="text;html=1;align=center;verticalAlign=middle;whiteSpace=wrap;rounded=0;" parent="1" vertex="1">
          <mxGeometry x="201" y="370" width="123" height="30" as="geometry" />
        </mxCell>
        <mxCell id="47_pGREQ6rvNZp8R7Rz3-27" value="" style="endArrow=classic;html=1;rounded=0;entryX=0;entryY=0.875;entryDx=0;entryDy=0;strokeWidth=2;entryPerimeter=0;exitX=0.538;exitY=1.008;exitDx=0;exitDy=0;exitPerimeter=0;" parent="1" source="EqE0YKUDqJqxegZ7C9gL-4" edge="1">
          <mxGeometry width="50" height="50" relative="1" as="geometry">
            <mxPoint x="110" y="460" as="sourcePoint" />
            <mxPoint x="355" y="667" as="targetPoint" />
            <Array as="points">
              <mxPoint x="110" y="667" />
              <mxPoint x="190" y="667" />
              <mxPoint x="270" y="667" />
              <mxPoint x="320" y="667" />
            </Array>
          </mxGeometry>
        </mxCell>
        <mxCell id="47_pGREQ6rvNZp8R7Rz3-29" value="" style="endArrow=classic;html=1;rounded=0;entryX=1.007;entryY=0.192;entryDx=0;entryDy=0;strokeWidth=2;exitX=0.41;exitY=1.008;exitDx=0;exitDy=0;exitPerimeter=0;entryPerimeter=0;" parent="1" source="kIoXdZcQtLT9reUE1cwR-1" target="EqE0YKUDqJqxegZ7C9gL-1" edge="1">
          <mxGeometry width="50" height="50" relative="1" as="geometry">
            <mxPoint x="665" y="460" as="sourcePoint" />
            <mxPoint x="295" y="490" as="targetPoint" />
            <Array as="points">
              <mxPoint x="710" y="570" />
              <mxPoint x="710" y="600" />
              <mxPoint x="510" y="600" />
            </Array>
          </mxGeometry>
        </mxCell>
        <mxCell id="47_pGREQ6rvNZp8R7Rz3-30" value="" style="endArrow=classic;html=1;rounded=0;exitX=1;exitY=0.875;exitDx=0;exitDy=0;strokeWidth=2;exitPerimeter=0;entryX=0.587;entryY=1.008;entryDx=0;entryDy=0;entryPerimeter=0;" parent="1" target="kIoXdZcQtLT9reUE1cwR-1" edge="1">
          <mxGeometry width="50" height="50" relative="1" as="geometry">
            <mxPoint x="475" y="620" as="sourcePoint" />
            <mxPoint x="739.26" y="350" as="targetPoint" />
            <Array as="points">
              <mxPoint x="580" y="620" />
              <mxPoint x="740" y="620" />
              <mxPoint x="740" y="500" />
            </Array>
          </mxGeometry>
        </mxCell>
        <mxCell id="47_pGREQ6rvNZp8R7Rz3-31" value="" style="endArrow=classic;html=1;rounded=0;entryX=0.25;entryY=1;entryDx=0;entryDy=0;strokeWidth=2;" parent="1" target="EqE0YKUDqJqxegZ7C9gL-1" edge="1">
          <mxGeometry width="50" height="50" relative="1" as="geometry">
            <mxPoint x="195" y="900" as="sourcePoint" />
            <mxPoint x="425" y="900" as="targetPoint" />
            <Array as="points">
              <mxPoint x="195" y="950" />
              <mxPoint x="385" y="950" />
            </Array>
          </mxGeometry>
        </mxCell>
        <mxCell id="47_pGREQ6rvNZp8R7Rz3-32" value="IMPORTED CSV FILE" style="text;html=1;align=center;verticalAlign=middle;whiteSpace=wrap;rounded=0;" parent="1" vertex="1">
          <mxGeometry x="235" y="950" width="100" height="30" as="geometry" />
        </mxCell>
        <mxCell id="47_pGREQ6rvNZp8R7Rz3-33" value="" style="endArrow=classic;html=1;rounded=0;exitX=0.75;exitY=1;exitDx=0;exitDy=0;strokeWidth=2;" parent="1" source="EqE0YKUDqJqxegZ7C9gL-1" edge="1">
          <mxGeometry width="50" height="50" relative="1" as="geometry">
            <mxPoint x="455" y="820" as="sourcePoint" />
            <mxPoint x="660" y="900" as="targetPoint" />
            <Array as="points">
              <mxPoint x="445" y="950" />
              <mxPoint x="560" y="950" />
              <mxPoint x="660" y="950" />
            </Array>
          </mxGeometry>
        </mxCell>
        <mxCell id="47_pGREQ6rvNZp8R7Rz3-34" value="DB BACKUP FILE" style="text;html=1;align=center;verticalAlign=middle;whiteSpace=wrap;rounded=0;" parent="1" vertex="1">
          <mxGeometry x="475" y="950" width="165" height="30" as="geometry" />
        </mxCell>
        <mxCell id="47_pGREQ6rvNZp8R7Rz3-35" value="" style="endArrow=classic;html=1;rounded=0;strokeWidth=2;entryX=0.999;entryY=0.357;entryDx=0;entryDy=0;entryPerimeter=0;" parent="1" edge="1">
          <mxGeometry width="50" height="50" relative="1" as="geometry">
            <mxPoint x="326.41" y="360.73" as="sourcePoint" />
            <mxPoint x="187.49500000000003" y="360.0000000000001" as="targetPoint" />
          </mxGeometry>
        </mxCell>
        <mxCell id="uzKrB_WK56wrm18zhLO5-1" value="" style="endArrow=classic;html=1;rounded=0;strokeWidth=2;" parent="1" edge="1">
          <mxGeometry width="50" height="50" relative="1" as="geometry">
            <mxPoint x="187.5" y="410" as="sourcePoint" />
            <mxPoint x="327.5" y="410" as="targetPoint" />
          </mxGeometry>
        </mxCell>
        <mxCell id="uzKrB_WK56wrm18zhLO5-2" value="AUTHENTICATION SUCCESS&lt;div&gt;ACCESS APPROVAL&lt;/div&gt;" style="text;html=1;align=center;verticalAlign=middle;whiteSpace=wrap;rounded=0;" parent="1" vertex="1">
          <mxGeometry x="190" y="320" width="145" height="30" as="geometry" />
        </mxCell>
        <mxCell id="kIoXdZcQtLT9reUE1cwR-1" value="QUALITY &amp;amp; SHIPPING DEPARTMENT USER INTERFACES" style="shape=cube;whiteSpace=wrap;html=1;boundedLbl=1;backgroundOutline=1;darkOpacity=0.05;darkOpacity2=0.1;strokeWidth=1;fillColor=#dae8fc;strokeColor=#6c8ebf;" parent="1" vertex="1">
          <mxGeometry x="642.5" y="330" width="165" height="110" as="geometry" />
        </mxCell>
        <mxCell id="kIoXdZcQtLT9reUE1cwR-2" value="ACTIVE DIRECTORY" style="shape=cube;whiteSpace=wrap;html=1;boundedLbl=1;backgroundOutline=1;darkOpacity=0.05;darkOpacity2=0.1;strokeWidth=1;fillColor=#dae8fc;strokeColor=#6c8ebf;" parent="1" vertex="1">
          <mxGeometry x="327.5" y="330" width="165" height="110" as="geometry" />
        </mxCell>
        <mxCell id="kIoXdZcQtLT9reUE1cwR-3" value="KICZAN FRONT OFFICE" style="shape=cube;whiteSpace=wrap;html=1;boundedLbl=1;backgroundOutline=1;darkOpacity=0.05;darkOpacity2=0.1;strokeWidth=1;fillColor=#dae8fc;strokeColor=#6c8ebf;" parent="1" vertex="1">
          <mxGeometry x="327.5" y="190" width="165" height="110" as="geometry" />
        </mxCell>
        <mxCell id="kIoXdZcQtLT9reUE1cwR-4" value="BACKUP ARCHIVE" style="shape=cube;whiteSpace=wrap;html=1;boundedLbl=1;backgroundOutline=1;darkOpacity=0.05;darkOpacity2=0.1;strokeWidth=1;fillColor=#dae8fc;strokeColor=#6c8ebf;" parent="1" vertex="1">
          <mxGeometry x="570" y="790" width="165" height="110" as="geometry" />
        </mxCell>
        <mxCell id="kIoXdZcQtLT9reUE1cwR-5" value="" style="endArrow=classic;html=1;rounded=0;exitX=0;exitY=0.5;exitDx=0;exitDy=0;strokeWidth=2;" parent="1" edge="1">
          <mxGeometry width="50" height="50" relative="1" as="geometry">
            <mxPoint x="355" y="630" as="sourcePoint" />
            <mxPoint x="130" y="440" as="targetPoint" />
            <Array as="points">
              <mxPoint x="130" y="630" />
            </Array>
          </mxGeometry>
        </mxCell>
        <mxCell id="kIoXdZcQtLT9reUE1cwR-6" value="SEARCH RESULTS" style="text;html=1;align=center;verticalAlign=middle;whiteSpace=wrap;rounded=0;" parent="1" vertex="1">
          <mxGeometry x="152.5" y="600" width="190" height="30" as="geometry" />
        </mxCell>
        <mxCell id="kIoXdZcQtLT9reUE1cwR-7" value="" style="endArrow=classic;html=1;rounded=0;exitX=0.546;exitY=1.018;exitDx=0;exitDy=0;exitPerimeter=0;strokeWidth=2;entryX=-0.009;entryY=0.183;entryDx=0;entryDy=0;entryPerimeter=0;" parent="1" target="EqE0YKUDqJqxegZ7C9gL-1" edge="1">
          <mxGeometry width="50" height="50" relative="1" as="geometry">
            <mxPoint x="147.58999999999992" y="439.9999999999999" as="sourcePoint" />
            <mxPoint x="350.5" y="598.02" as="targetPoint" />
            <Array as="points">
              <mxPoint x="148" y="600" />
            </Array>
          </mxGeometry>
        </mxCell>
        <mxCell id="kIoXdZcQtLT9reUE1cwR-8" value="SEARCH CRITERIA" style="text;html=1;align=center;verticalAlign=middle;whiteSpace=wrap;rounded=0;" parent="1" vertex="1">
          <mxGeometry x="187.5" y="570" width="120" height="30" as="geometry" />
        </mxCell>
        <mxCell id="kIoXdZcQtLT9reUE1cwR-9" value="" style="shape=partialRectangle;whiteSpace=wrap;html=1;bottom=0;right=0;fillColor=#dae8fc;strokeColor=#000000;" parent="1" vertex="1">
          <mxGeometry x="122.5" y="1000" width="160" height="60" as="geometry" />
        </mxCell>
        <mxCell id="kIoXdZcQtLT9reUE1cwR-10" value="" style="endArrow=none;html=1;rounded=0;exitX=0;exitY=1;exitDx=0;exitDy=0;entryX=1;entryY=1;entryDx=0;entryDy=0;" parent="1" source="kIoXdZcQtLT9reUE1cwR-9" target="kIoXdZcQtLT9reUE1cwR-9" edge="1">
          <mxGeometry width="50" height="50" relative="1" as="geometry">
            <mxPoint x="202.5" y="1160" as="sourcePoint" />
            <mxPoint x="252.5" y="1110" as="targetPoint" />
          </mxGeometry>
        </mxCell>
        <mxCell id="kIoXdZcQtLT9reUE1cwR-11" value="" style="endArrow=none;html=1;rounded=0;entryX=0.25;entryY=0;entryDx=0;entryDy=0;" parent="1" target="kIoXdZcQtLT9reUE1cwR-9" edge="1">
          <mxGeometry width="50" height="50" relative="1" as="geometry">
            <mxPoint x="162.5" y="1060" as="sourcePoint" />
            <mxPoint x="252.5" y="1110" as="targetPoint" />
          </mxGeometry>
        </mxCell>
        <mxCell id="kIoXdZcQtLT9reUE1cwR-12" value="D2" style="text;html=1;align=center;verticalAlign=middle;whiteSpace=wrap;rounded=0;" parent="1" vertex="1">
          <mxGeometry x="132.5" y="1015" width="20" height="30" as="geometry" />
        </mxCell>
        <mxCell id="kIoXdZcQtLT9reUE1cwR-13" value="AUDIT LOG" style="text;html=1;align=center;verticalAlign=middle;whiteSpace=wrap;rounded=0;" parent="1" vertex="1">
          <mxGeometry x="167.5" y="1015" width="110" height="30" as="geometry" />
        </mxCell>
        <mxCell id="kIoXdZcQtLT9reUE1cwR-14" value="" style="endArrow=classic;html=1;rounded=0;strokeWidth=2;exitX=0.5;exitY=1;exitDx=0;exitDy=0;" parent="1" source="EqE0YKUDqJqxegZ7C9gL-1" edge="1">
          <mxGeometry width="50" height="50" relative="1" as="geometry">
            <mxPoint x="410" y="1110" as="sourcePoint" />
            <mxPoint x="201.91" y="1060" as="targetPoint" />
            <Array as="points">
              <mxPoint x="415" y="1110" />
              <mxPoint x="202" y="1110" />
            </Array>
          </mxGeometry>
        </mxCell>
        <mxCell id="kIoXdZcQtLT9reUE1cwR-15" value="AUDIT LOG UPDATES" style="text;html=1;align=center;verticalAlign=middle;whiteSpace=wrap;rounded=0;" parent="1" vertex="1">
          <mxGeometry x="272.5" y="1110" width="75" height="30" as="geometry" />
        </mxCell>
        <mxCell id="AsmtUFfztKSTKxo9pQGi-1" value="&lt;span style=&quot;color: rgb(0, 0, 0); font-family: Helvetica; font-size: 12px; font-style: normal; font-variant-ligatures: normal; font-variant-caps: normal; font-weight: 400; letter-spacing: normal; orphans: 2; text-align: center; text-indent: 0px; text-transform: none; widows: 2; word-spacing: 0px; -webkit-text-stroke-width: 0px; white-space: normal; text-decoration-thickness: initial; text-decoration-style: initial; text-decoration-color: initial; float: none; background-color: rgb(255, 255, 255); display: inline !important;&quot;&gt;WO C/U/D ACKNOWLEDGEMENTS&lt;/span&gt;" style="text;whiteSpace=wrap;html=1;" parent="1" vertex="1">
          <mxGeometry x="122.5" y="665" width="205" height="15" as="geometry" />
        </mxCell>
        <mxCell id="AsmtUFfztKSTKxo9pQGi-2" value="" style="endArrow=classic;html=1;rounded=0;exitX=0;exitY=0.75;exitDx=0;exitDy=0;strokeWidth=2;" parent="1" source="EqE0YKUDqJqxegZ7C9gL-1" edge="1">
          <mxGeometry width="50" height="50" relative="1" as="geometry">
            <mxPoint x="290" y="730" as="sourcePoint" />
            <mxPoint x="90" y="440" as="targetPoint" />
            <Array as="points">
              <mxPoint x="90" y="690" />
            </Array>
          </mxGeometry>
        </mxCell>
        <mxCell id="AsmtUFfztKSTKxo9pQGi-3" value="" style="endArrow=classic;html=1;rounded=0;strokeWidth=2;entryX=0.288;entryY=1.006;entryDx=0;entryDy=0;entryPerimeter=0;" parent="1" target="EqE0YKUDqJqxegZ7C9gL-4" edge="1">
          <mxGeometry width="50" height="50" relative="1" as="geometry">
            <mxPoint x="355" y="710" as="sourcePoint" />
            <mxPoint x="75" y="440" as="targetPoint" />
            <Array as="points">
              <mxPoint x="70" y="710" />
            </Array>
          </mxGeometry>
        </mxCell>
        <mxCell id="AsmtUFfztKSTKxo9pQGi-4" value="INPUT VALIDATION ERROR MESSAGE" style="text;html=1;align=center;verticalAlign=middle;whiteSpace=wrap;rounded=0;" parent="1" vertex="1">
          <mxGeometry x="108.75" y="690" width="227.5" height="20" as="geometry" />
        </mxCell>
        <mxCell id="AsmtUFfztKSTKxo9pQGi-5" value="INPUT VALIDATION ERROR MESSAGE" style="text;html=1;align=center;verticalAlign=middle;whiteSpace=wrap;rounded=0;" parent="1" vertex="1">
          <mxGeometry x="491.25" y="620" width="227.5" height="20" as="geometry" />
        </mxCell>
        <mxCell id="AsmtUFfztKSTKxo9pQGi-6" value="" style="endArrow=classic;html=1;rounded=0;entryX=0.708;entryY=1.003;entryDx=0;entryDy=0;entryPerimeter=0;strokeWidth=2;" parent="1" target="kIoXdZcQtLT9reUE1cwR-1" edge="1">
          <mxGeometry width="50" height="50" relative="1" as="geometry">
            <mxPoint x="475" y="640" as="sourcePoint" />
            <mxPoint x="760" y="490" as="targetPoint" />
            <Array as="points">
              <mxPoint x="760" y="640" />
            </Array>
          </mxGeometry>
        </mxCell>
        <mxCell id="yAURwjMkmJhR2nzbmozJ-1" value="" style="endArrow=classic;html=1;rounded=0;strokeWidth=2;" parent="1" edge="1">
          <mxGeometry width="50" height="50" relative="1" as="geometry">
            <mxPoint x="492.5" y="360" as="sourcePoint" />
            <mxPoint x="640" y="360" as="targetPoint" />
          </mxGeometry>
        </mxCell>
        <mxCell id="yAURwjMkmJhR2nzbmozJ-2" value="AUTHENTICATION SUCCESS&lt;div&gt;ACCESS APPROVAL&lt;/div&gt;" style="text;html=1;align=center;verticalAlign=middle;whiteSpace=wrap;rounded=0;" parent="1" vertex="1">
          <mxGeometry x="491.25" y="320" width="145" height="30" as="geometry" />
        </mxCell>
        <mxCell id="yAURwjMkmJhR2nzbmozJ-3" value="" style="endArrow=classic;html=1;rounded=0;strokeWidth=2;" parent="1" edge="1">
          <mxGeometry width="50" height="50" relative="1" as="geometry">
            <mxPoint x="642.5" y="410" as="sourcePoint" />
            <mxPoint x="495" y="410" as="targetPoint" />
          </mxGeometry>
        </mxCell>
        <mxCell id="yAURwjMkmJhR2nzbmozJ-4" value="DEPARTMENT MANAGER USER AUTHENTICATION" style="text;html=1;align=center;verticalAlign=middle;whiteSpace=wrap;rounded=0;" parent="1" vertex="1">
          <mxGeometry x="510" y="370" width="123" height="30" as="geometry" />
        </mxCell>
      </root>
    </mxGraphModel>
  </diagram>
</mxfile>
